<mxfile host="app.diagrams.net" modified="2024-04-13T18:06:50.823Z" agent="Mozilla/5.0 (Windows NT 10.0; Win64; x64) AppleWebKit/537.36 (KHTML, like Gecko) Chrome/123.0.0.0 Safari/537.36" etag="LRdexpzsC6R36dMx477-" version="24.2.3" type="device">
  <diagram id="C5RBs43oDa-KdzZeNtuy" name="Page-1">
    <mxGraphModel dx="1434" dy="780" grid="1" gridSize="10" guides="1" tooltips="1" connect="1" arrows="1" fold="1" page="1" pageScale="1" pageWidth="827" pageHeight="1169" background="#292929" math="0" shadow="0">
      <root>
        <mxCell id="WIyWlLk6GJQsqaUBKTNV-0" />
        <mxCell id="WIyWlLk6GJQsqaUBKTNV-1" parent="WIyWlLk6GJQsqaUBKTNV-0" />
        <mxCell id="PInWMZVVjpH-Zrs9QVDF-2" value="dsa" style="rounded=0;whiteSpace=wrap;html=1;fillColor=#000000;strokeColor=#FFFFFF;" vertex="1" parent="WIyWlLk6GJQsqaUBKTNV-1">
          <mxGeometry x="120" y="150" width="180" height="60" as="geometry" />
        </mxCell>
        <mxCell id="eQhBQ4GFZ5qmZsiNC9Xa-2" value="dsa" style="rounded=0;whiteSpace=wrap;html=1;fillColor=#000000;strokeColor=#FFFFFF;" parent="WIyWlLk6GJQsqaUBKTNV-1" vertex="1">
          <mxGeometry x="120" y="120" width="180" height="30" as="geometry" />
        </mxCell>
        <mxCell id="eQhBQ4GFZ5qmZsiNC9Xa-3" value="Schedule JSON handling" style="text;html=1;align=center;verticalAlign=middle;whiteSpace=wrap;rounded=0;fillColor=none;strokeColor=none;fontColor=#FFFFFF;" parent="WIyWlLk6GJQsqaUBKTNV-1" vertex="1">
          <mxGeometry x="160" y="120" width="100" height="30" as="geometry" />
        </mxCell>
        <mxCell id="eQhBQ4GFZ5qmZsiNC9Xa-5" value="+activity: string" style="text;html=1;align=left;verticalAlign=middle;whiteSpace=wrap;rounded=0;fontColor=#FFFFFF;" parent="WIyWlLk6GJQsqaUBKTNV-1" vertex="1">
          <mxGeometry x="360" y="430" width="90" height="30" as="geometry" />
        </mxCell>
        <mxCell id="eQhBQ4GFZ5qmZsiNC9Xa-6" value="+time: int" style="text;html=1;align=left;verticalAlign=middle;whiteSpace=wrap;rounded=0;fontColor=#FFFFFF;" parent="WIyWlLk6GJQsqaUBKTNV-1" vertex="1">
          <mxGeometry x="430" y="250" width="90" height="30" as="geometry" />
        </mxCell>
        <mxCell id="eQhBQ4GFZ5qmZsiNC9Xa-7" value="+activities: array" style="text;html=1;align=left;verticalAlign=middle;whiteSpace=wrap;rounded=0;fontColor=#FFFFFF;" parent="WIyWlLk6GJQsqaUBKTNV-1" vertex="1">
          <mxGeometry x="510" y="360" width="90" height="30" as="geometry" />
        </mxCell>
        <mxCell id="eQhBQ4GFZ5qmZsiNC9Xa-8" value="+activities: array" style="text;html=1;align=left;verticalAlign=middle;whiteSpace=wrap;rounded=0;fontColor=#FFFFFF;" parent="WIyWlLk6GJQsqaUBKTNV-1" vertex="1">
          <mxGeometry x="510" y="430" width="90" height="30" as="geometry" />
        </mxCell>
        <mxCell id="eQhBQ4GFZ5qmZsiNC9Xa-9" value="+schedules: array" style="text;html=1;align=left;verticalAlign=middle;whiteSpace=wrap;rounded=0;fontColor=#FFFFFF;" parent="WIyWlLk6GJQsqaUBKTNV-1" vertex="1">
          <mxGeometry x="560" y="520" width="110" height="30" as="geometry" />
        </mxCell>
        <mxCell id="eQhBQ4GFZ5qmZsiNC9Xa-11" value="" style="rounded=0;whiteSpace=wrap;html=1;fillColor=#000000;strokeColor=#FFFFFF;" parent="WIyWlLk6GJQsqaUBKTNV-1" vertex="1">
          <mxGeometry x="120" y="210" width="180" height="120" as="geometry" />
        </mxCell>
        <mxCell id="eQhBQ4GFZ5qmZsiNC9Xa-14" value="+exportJson()" style="text;html=1;align=left;verticalAlign=middle;whiteSpace=wrap;rounded=0;fontColor=#FFFFFF;" parent="WIyWlLk6GJQsqaUBKTNV-1" vertex="1">
          <mxGeometry x="120" y="210" width="110" height="30" as="geometry" />
        </mxCell>
        <mxCell id="eQhBQ4GFZ5qmZsiNC9Xa-15" value="+fetchFile()" style="text;html=1;align=left;verticalAlign=middle;whiteSpace=wrap;rounded=0;fontColor=#FFFFFF;" parent="WIyWlLk6GJQsqaUBKTNV-1" vertex="1">
          <mxGeometry x="120" y="240" width="110" height="30" as="geometry" />
        </mxCell>
        <mxCell id="PInWMZVVjpH-Zrs9QVDF-0" value="+jsonString: string" style="text;html=1;align=left;verticalAlign=middle;whiteSpace=wrap;rounded=0;fontColor=#FFFFFF;" vertex="1" parent="WIyWlLk6GJQsqaUBKTNV-1">
          <mxGeometry x="120" y="150" width="110" height="30" as="geometry" />
        </mxCell>
        <mxCell id="PInWMZVVjpH-Zrs9QVDF-1" value="+saveAs()" style="text;html=1;align=left;verticalAlign=middle;whiteSpace=wrap;rounded=0;fontColor=#FFFFFF;" vertex="1" parent="WIyWlLk6GJQsqaUBKTNV-1">
          <mxGeometry x="120" y="270" width="110" height="30" as="geometry" />
        </mxCell>
        <mxCell id="PInWMZVVjpH-Zrs9QVDF-3" value="+fetch()" style="text;html=1;align=left;verticalAlign=middle;whiteSpace=wrap;rounded=0;fontColor=#FFFFFF;" vertex="1" parent="WIyWlLk6GJQsqaUBKTNV-1">
          <mxGeometry x="120" y="300" width="110" height="30" as="geometry" />
        </mxCell>
        <mxCell id="PInWMZVVjpH-Zrs9QVDF-4" value="+blob: object" style="text;html=1;align=left;verticalAlign=middle;whiteSpace=wrap;rounded=0;fontColor=#FFFFFF;" vertex="1" parent="WIyWlLk6GJQsqaUBKTNV-1">
          <mxGeometry x="120" y="180" width="110" height="30" as="geometry" />
        </mxCell>
      </root>
    </mxGraphModel>
  </diagram>
</mxfile>
